<?xml version="1.0" encoding="UTF-8" standalone="no"?>
<svg
   xmlns:dc="http://purl.org/dc/elements/1.1/"
   xmlns:cc="http://creativecommons.org/ns#"
   xmlns:rdf="http://www.w3.org/1999/02/22-rdf-syntax-ns#"
   xmlns:svg="http://www.w3.org/2000/svg"
   xmlns="http://www.w3.org/2000/svg"
   xmlns:xlink="http://www.w3.org/1999/xlink"
   xmlns:sodipodi="http://sodipodi.sourceforge.net/DTD/sodipodi-0.dtd"
   xmlns:inkscape="http://www.inkscape.org/namespaces/inkscape"
   width="512"
   height="512"
   viewBox="0 0 135.46666 135.46667"
   version="1.1"
   id="svg8"
   sodipodi:docname="lidp.svg"
   inkscape:version="1.0.1 (3bc2e813f5, 2020-09-07)">
  <defs
     id="defs2">
    <linearGradient
       inkscape:collect="always"
       id="linearGradient1525">
      <stop
         style="stop-color:#045192;stop-opacity:1"
         offset="0"
         id="stop1521" />
      <stop
         style="stop-color:#128ae9;stop-opacity:1"
         offset="1"
         id="stop1523" />
    </linearGradient>
    <linearGradient
       inkscape:collect="always"
       xlink:href="#linearGradient1525"
       id="linearGradient1527"
       x1="132.83296"
       y1="133.90204"
       x2="2.1381562"
       y2="2.6726952"
       gradientUnits="userSpaceOnUse" />
    <filter
       style="color-interpolation-filters:sRGB;"
       inkscape:label="Invert"
       id="filter5156">
      <feColorMatrix
         type="hueRotate"
         values="180"
         result="color1"
         id="feColorMatrix5152" />
      <feColorMatrix
         values="-1 0 0 0 1 0 -1 0 0 1 0 0 -1 0 1 -0.21 -0.72 -0.07 2 0 "
         result="color2"
         id="feColorMatrix5154" />
    </filter>
  </defs>
  <sodipodi:namedview
     id="base"
     pagecolor="#ffffff"
     bordercolor="#666666"
     borderopacity="1.0"
     inkscape:pageopacity="0.0"
     inkscape:pageshadow="2"
     inkscape:zoom="1"
     inkscape:cx="322.78063"
     inkscape:cy="284.16061"
     inkscape:document-units="mm"
     inkscape:current-layer="layer1"
     inkscape:document-rotation="0"
     showgrid="false"
     units="px"
     inkscape:pagecheckerboard="true"
     inkscape:window-width="1920"
     inkscape:window-height="1009"
     inkscape:window-x="1912"
     inkscape:window-y="-8"
     inkscape:window-maximized="1" />
  <metadata
     id="metadata5">
    <rdf:RDF>
      <cc:Work
         rdf:about="">
        <dc:format>image/svg+xml</dc:format>
        <dc:type
           rdf:resource="http://purl.org/dc/dcmitype/StillImage" />
        <dc:title></dc:title>
      </cc:Work>
    </rdf:RDF>
  </metadata>
  <g
     inkscape:label="Background"
     inkscape:groupmode="layer"
     id="layer1"
     style="display:inline"
     sodipodi:insensitive="true">
    <circle
       style="fill:url(#linearGradient1527);fill-opacity:1;stroke:#ffffff;stroke-width:0.00110396;paint-order:stroke markers fill"
       id="path1474"
       cx="67.997917"
       cy="67.99791"
       r="65.351532" />
  </g>
  <g
     inkscape:groupmode="layer"
     id="layer2"
     inkscape:label="logo"
     style="display:inline"
     sodipodi:insensitive="true">
    <g
       id="g5173"
       transform="matrix(0.12709755,0,0,0.12709755,4.5557438,-15.011779)">
      <path
         style="fill:#ffffff;fill-opacity:1"
         d="m 140,698.86215 v -202.5 h 42 42 v 164.5 164.5 h 62.5 62.5 v 38 38 H 244.5 140 Z m 237,-0.0633 V 496.23553 l 74.25,0.40859 c 70.25199,0.3866 74.84295,0.52145 85.26217,2.50451 51.29037,9.76192 77.56834,34.39471 88.77123,83.21355 2.15224,9.37884 2.18396,10.80729 2.48726,112 0.3346,111.63644 0.26793,113.29074 -5.34655,132.66513 -10.60363,36.59091 -35.78856,59.94441 -74.84657,69.4038 -18.18345,4.40378 -29.0708,4.93104 -101.82141,4.93104 H 377 V 698.79882 Z M 511.30845,824.2586 c 13.8507,-2.12547 21.7518,-7.83104 25.06932,-18.10316 3.42472,-10.60401 3.75479,-21.64873 3.40071,-113.79326 -0.31885,-82.97631 -0.49469,-90.99881 -2.11512,-96.5 -3.56585,-12.10569 -8.67029,-17.53791 -19.76827,-21.03771 -4.09047,-1.28995 -10.53368,-1.82301 -26.64509,-2.20441 L 470,572.11698 v 126.62258 126.62259 h 17.05845 c 9.38214,0 20.29464,-0.49661 24.25,-1.10358 z M 661,698.86215 v -202.5 l 64.75,0.009 c 35.6125,0.005 69.925,0.46351 76.25,1.01955 50.76985,4.46333 80.9862,21.07722 97.25151,53.4719 4.11252,8.19066 8.51678,23.39089 10.29923,35.54524 2.38534,16.26546 1.62642,54.25861 -1.35899,68.03352 -8.2632,38.12707 -26.50445,59.67843 -60.33374,71.28206 -18.23149,6.25305 -37.44301,8.63873 -69.57,8.63873 H 754 v 83.5 83.5 H 707.5 661 Z M 790,666.3284 c 12.9099,-1.67311 19.71437,-4.51591 26.03814,-10.87834 4.49933,-4.52684 5.98296,-6.90565 7.81325,-12.52751 4.98444,-15.31002 5.05714,-42.71163 0.14814,-55.83211 -2.68112,-7.16593 -8.7376,-13.96379 -15.30254,-17.17571 -8.60351,-4.20931 -17.32569,-5.51602 -36.94699,-5.53522 L 754,564.36215 v 51.5 51.5 l 14.25,-0.0309 c 7.8375,-0.017 17.625,-0.46827 21.75,-1.00287 z m -532.5182,29.28375 c -0.4191,-55.4125 -0.50763,-120.85897 -0.19674,-145.4366 0.64676,-51.12962 0.42122,-49.76104 9.68806,-58.78722 10.78105,-10.50106 28.05681,-15.77082 42.96633,-13.10634 13.62462,2.43486 27.88566,11.93715 32.57329,21.70394 1.14088,2.37704 2.14778,7.55047 2.6034,13.37622 0.40865,5.225 1.0737,71.0375 1.4779,146.25 l 0.73491,136.75 H 302.78638 258.2438 Z M 76.582192,515.49514 C 75.895429,514.38393 102.57465,488.28875 115,477.91834 c 27.015,-22.54719 55.0057,-40.88363 89.5,-58.63061 17.19073,-8.84447 46.10821,-21.92558 48.4693,-21.92558 0.51809,0 0.32014,1.76248 -0.43988,3.91662 -2.59685,7.36025 -2.84384,12.742 -1.01656,22.1496 0.96202,4.95283 1.57767,9.13753 1.36813,9.29935 -0.20955,0.16181 -6.68099,2.44494 -14.38099,5.07361 -53.42731,18.23934 -105.73756,43.21584 -148.094123,70.71029 -6.651768,4.31779 -12.36271,7.85053 -12.690983,7.85053 -0.328273,0 -0.837989,-0.39015 -1.132702,-0.86701 z M 916,502.30477 c -82.19846,-55.2199 -188.53106,-93.15674 -299.5,-106.85418 -36.52022,-4.50787 -55.11284,-5.52046 -102,-5.55515 -44.35074,-0.0328 -55.00307,0.45904 -87.5,4.04013 -20.34066,2.24149 -62.85239,8.91378 -70.08734,11.00032 -1.22113,0.35217 -1.87061,-0.80799 -2.81515,-5.02863 -2.0535,-9.17599 -6.80618,-17.41622 -14.35048,-24.88094 -3.79978,-3.75971 -6.69936,-7.04518 -6.4435,-7.30103 2.14373,-2.14373 45.62929,-12.13726 70.75799,-16.26108 40.55332,-6.65513 69.47498,-8.52592 120.73191,-7.8095 39.10164,0.54651 53.79873,1.55553 83.96665,5.76465 C 714.0698,364.1125 813.7845,407.3834 889.5,471.24563 c 10.2433,8.63971 38.5,35.99531 38.5,37.27224 0,1.60942 -1.5512,0.80627 -12,-6.2131 z M 289.83637,459.50186 c -7.59998,-2.50911 -11.54361,-5.07956 -17.57126,-11.45291 -14.27813,-15.09702 -17.33969,-37.79228 -7.67181,-56.87093 3.15784,-6.23168 11.14528,-14.88659 16.79319,-18.19648 18.776,-11.00347 42.64896,-5.00958 54.77565,13.75277 5.43489,8.40883 7.83786,16.8791 7.83786,27.62784 0,19.94729 -9.73801,35.95009 -26.56987,43.66315 -7.84622,3.59546 -19.31658,4.20925 -27.59376,1.47656 z"
         id="path5177"
         inkscape:connector-curvature="0"
         sodipodi:nodetypes="cccccccccccccccssssssscccsssssscccsssccssssscsccccccsssssscccsssssssssscccssssssssssssssssssssssssssssssssss" />
      <path
         style="fill:#ffffff;fill-opacity:1"
         d="m 140,698.85581 v -202.5156 l 41.75,0.26097 41.75,0.26097 0.25297,164.75 0.25296,164.75 h 62.50921 62.5092 l -0.26217,37.25 -0.26217,37.25 -104.25,0.25463 -104.25,0.25463 z m 237,-0.057 V 496.23549 l 74.25,0.40859 c 70.25199,0.3866 74.84295,0.52145 85.26217,2.50451 51.29037,9.76192 77.56834,34.39471 88.77123,83.21355 2.15224,9.37884 2.18396,10.80729 2.48726,112 0.3346,111.63644 0.26793,113.29074 -5.34655,132.66513 -10.60363,36.59091 -35.78856,59.94441 -74.84657,69.4038 -18.18345,4.40382 -29.0708,4.93108 -101.82141,4.93108 H 377 V 698.79882 Z m 134.30845,125.45975 c 13.8507,-2.12547 21.7518,-7.83104 25.06932,-18.10316 3.42472,-10.60401 3.75479,-21.64873 3.40071,-113.79326 -0.31885,-82.97631 -0.49469,-90.99881 -2.11512,-96.5 -3.56585,-12.10569 -8.67029,-17.53791 -19.76827,-21.03771 -4.09047,-1.28995 -10.53368,-1.82301 -26.64509,-2.20441 L 470,572.11698 v 126.62258 126.62259 h 17.05845 c 9.38214,0 20.29464,-0.49661 24.25,-1.10358 z M 661,698.86215 v -202.5 l 64.75,0.009 c 35.6125,0.005 69.925,0.46351 76.25,1.01955 50.46511,4.43654 80.82404,21.00853 97.00627,52.95272 3.06013,6.04077 7.08833,18.0571 6.41724,19.14295 -0.29785,0.48193 -0.0125,0.87623 0.6341,0.87623 0.68332,0 0.95663,0.83755 0.65264,2 -0.28766,1.1 -0.0627,2 0.49995,2 0.56262,0 0.8079,1.125 0.54505,2.5 -0.26285,1.375 -0.0341,2.5 0.50842,2.5 0.56259,0 0.72856,1.28884 0.38633,3 -0.37751,1.88755 -0.18963,3 0.50667,3 0.71387,0 0.91624,1.41977 0.57016,4 -0.29509,2.2 -0.18103,4 0.25346,4 0.89848,0 1.09945,43.9794 0.20779,45.47213 -0.31937,0.53467 -0.45794,2.67217 -0.30791,4.75 0.15412,2.13457 -0.18182,3.77787 -0.77232,3.77787 -0.57479,0 -0.78606,0.675 -0.46948,1.5 0.31659,0.825 0.25042,2.2875 -0.14704,3.25 -0.39745,0.9625 -0.88397,3.32265 -1.08114,5.24478 -0.52078,5.07671 -5.10303,18.45364 -8.99939,26.27185 -9.98404,20.03341 -26.6186,33.88463 -50.55279,42.09419 -18.23149,6.25305 -37.44301,8.63873 -69.57,8.63873 H 754 v 83.5 83.5 H 707.5 661 Z M 790,666.3284 c 12.9099,-1.67311 19.71437,-4.51591 26.03814,-10.87834 4.49933,-4.52684 5.98296,-6.90565 7.81325,-12.52751 4.98444,-15.31002 5.05714,-42.71163 0.14814,-55.83211 -2.68112,-7.16593 -8.7376,-13.96379 -15.30254,-17.17571 -8.60351,-4.20931 -17.32569,-5.51602 -36.94699,-5.53522 L 754,564.36215 v 51.5 51.5 l 14.25,-0.0309 c 7.8375,-0.017 17.625,-0.46827 21.75,-1.00287 z m -532.5182,29.28375 c -0.4191,-55.4125 -0.50763,-120.85897 -0.19674,-145.4366 0.64676,-51.12962 0.42122,-49.76104 9.68806,-58.78722 10.78105,-10.50106 28.05681,-15.77082 42.96633,-13.10634 13.62462,2.43486 27.88566,11.93715 32.57329,21.70394 1.14088,2.37704 2.14778,7.55047 2.6034,13.37622 0.40865,5.225 1.0737,71.0375 1.4779,146.25 l 0.73491,136.75 H 302.78638 258.2438 Z M 76.582192,515.49514 C 75.895429,514.38393 102.57465,488.28875 115,477.91834 c 27.015,-22.54719 55.0057,-40.88363 89.5,-58.63061 17.19073,-8.84447 46.10821,-21.92558 48.4693,-21.92558 0.51809,0 0.32014,1.76248 -0.43988,3.91662 -2.59685,7.36025 -2.84384,12.742 -1.01656,22.1496 0.96202,4.95283 1.57767,9.13753 1.36813,9.29935 -0.20955,0.16181 -6.68099,2.44494 -14.38099,5.07361 -53.42731,18.23934 -105.73756,43.21584 -148.094123,70.71029 -6.651768,4.31779 -12.36271,7.85053 -12.690983,7.85053 -0.328273,0 -0.837989,-0.39015 -1.132702,-0.86701 z M 915.5,501.59085 C 881.96504,478.94332 839.48259,457.09569 795.06994,439.65677 667.6958,389.64247 513.79095,375.68508 373.5,401.42525 c -8.8,1.6146 -16.48521,2.93592 -17.07825,2.93627 -0.59304,3.5e-4 -1.61551,-2.32691 -2.27216,-5.17167 -2.10802,-9.13241 -6.82899,-17.19006 -14.29432,-24.39724 -3.81114,-3.67934 -6.79449,-6.82457 -6.62967,-6.9894 0.81436,-0.81435 37.11296,-9.71088 50.2744,-12.3219 25.77808,-5.11395 48.16549,-7.97172 87.5,-11.16946 19.55242,-1.58954 81.07955,-0.73862 103,1.42449 117.26734,11.57192 213.07427,47.44523 297,111.2067 22.02697,16.7347 58.73725,50.3626 56.3555,51.62361 -0.47052,0.24912 -5.8055,-2.88999 -11.8555,-6.9758 z M 289.83637,459.50186 c -7.59998,-2.50911 -11.54361,-5.07956 -17.57126,-11.45291 -14.27813,-15.09702 -17.33969,-37.79228 -7.67181,-56.87093 3.15784,-6.23168 11.14528,-14.88659 16.79319,-18.19648 18.776,-11.00347 42.64896,-5.00958 54.77565,13.75277 5.43489,8.40883 7.83786,16.8791 7.83786,27.62784 0,19.94729 -9.73801,35.95009 -26.56987,43.66315 -7.84622,3.59546 -19.31658,4.20925 -27.59376,1.47656 z"
         id="path5175"
         inkscape:connector-curvature="0"
         sodipodi:nodetypes="cccccccccccccccssssssscccsssssscccsssccsssssssssssssssssssscsccccccsssssscccsssssssssscccsssssssssssssssssssssssssssssssss" />
    </g>
  </g>
</svg>
